<svg width="123" height="34" viewBox="0 0 123 34" fill="none" xmlns="http://www.w3.org/2000/svg">
<g clip-path="url(#clip0_178_55)">
<path d="M106.888 28.1273C106.43 28.5461 105.899 28.88 105.322 29.113C104.688 29.4018 103.999 29.5546 103.301 29.5613C102.561 29.5846 101.827 29.4227 101.167 29.0907C100.599 28.7832 100.175 28.2684 99.9873 27.6567C99.7723 26.9981 99.6635 26.3104 99.665 25.6185V16.5311H103.974C105.547 15.7362 106.875 14.2354 107.697 12.3975H99.6714V6.76955C98.8496 6.60475 98.012 6.52905 97.1735 6.5438C96.3085 6.53278 95.4446 6.60842 94.595 6.76955V12.4103H90.911C90.7834 13.0747 90.723 13.7499 90.7305 14.4262C90.7206 15.1319 90.7811 15.837 90.911 16.5311H94.5886V26.7823C94.5886 29.203 95.3138 31.0048 96.7642 32.1877C98.2146 33.3705 100.167 33.9609 102.621 33.9587C103.872 33.9731 105.114 33.7441 106.276 33.2847C107.285 32.8937 108.227 32.3498 109.067 31.6726C108.953 30.956 108.69 30.2706 108.293 29.6599C107.948 29.051 107.468 28.5271 106.888 28.1273Z" fill="#A53D96"/>
<path d="M106.887 28.127C106.429 28.5458 105.899 28.8797 105.321 29.1127C104.687 29.4015 103.998 29.5543 103.3 29.561C102.56 29.5843 101.826 29.4224 101.166 29.0904C100.598 28.7829 100.175 28.2681 99.9866 27.6564C99.7716 26.9978 99.6628 26.3101 99.6643 25.6182V22.5658C99.0089 21.096 98.132 19.7324 97.0633 18.5213C95.3002 16.5213 92.9893 15.1158 90.7266 14.1143C90.7266 14.216 90.7266 14.3209 90.7266 14.4322C90.7167 15.138 90.7772 15.843 90.9071 16.5371H94.5879V26.782C94.5879 29.2028 95.3131 31.0046 96.7635 32.1874C98.2139 33.3702 100.166 33.9606 102.62 33.9585C103.871 33.9728 105.113 33.7438 106.275 33.2844C107.285 32.8934 108.226 32.3495 109.066 31.6723C108.953 30.9557 108.689 30.2703 108.293 29.6596C107.947 29.0507 107.467 28.5268 106.887 28.127Z" fill="url(#paint0_linear_178_55)"/>
<path d="M0.999619 7.9781C0.684247 7.68445 0.432998 7.33035 0.261275 6.9375C0.0895521 6.54465 0.000976563 6.12134 0.000976562 5.69353C0.000976563 5.26571 0.0895521 4.84239 0.261275 4.44954C0.432998 4.0567 0.684247 3.7026 0.999619 3.40894C1.31113 3.10645 1.68029 2.86783 2.08579 2.70684C2.49128 2.54584 2.92508 2.46567 3.36215 2.47095C4.22894 2.47095 5.06023 2.81064 5.67314 3.41528C6.28605 4.01993 6.63038 4.84001 6.63038 5.69511C6.63038 6.55021 6.28605 7.37029 5.67314 7.97494C5.06023 8.57959 4.22894 8.91928 3.36215 8.91928C2.92488 8.92396 2.491 8.84321 2.08552 8.68168C1.68003 8.52014 1.31097 8.28102 0.999619 7.9781Z" fill="#A53D96"/>
<path d="M0.773548 33.3321V12.1556C1.62312 11.9947 2.48702 11.9191 3.35203 11.9299C4.20443 11.9137 5.05608 11.9894 5.89184 12.1556V33.3321C5.05608 33.4982 4.20443 33.5739 3.35203 33.5578C2.48702 33.5686 1.62312 33.493 0.773548 33.3321Z" fill="#A53D96"/>
<path d="M39.8988 12.4548C41.3044 13.1143 42.4833 14.1656 43.2899 15.4789C44.0964 16.7922 44.4952 18.3098 44.4369 19.8443V33.3324C43.6 33.4983 42.7473 33.574 41.8939 33.5581C41.0287 33.5721 40.1645 33.4964 39.3154 33.3324V21.3673C39.3154 19.7839 38.9136 18.512 38.1099 17.5518C37.3063 16.5915 36.0848 16.1167 34.4453 16.1273C32.7539 16.1485 31.1264 16.7679 29.8588 17.8729C30.0062 18.5201 30.0829 19.181 30.0876 19.8443V33.3324C29.2508 33.4983 28.3981 33.574 27.5446 33.5581C26.6614 33.5705 25.7792 33.4949 24.9113 33.3324V21.3673C24.9113 19.7839 24.5181 18.512 23.7317 17.5518C22.9453 16.5915 21.7355 16.1146 20.1025 16.1209C19.3033 16.1268 18.5086 16.2391 17.7399 16.4548C17.025 16.6391 16.3386 16.9183 15.6997 17.2847V33.3324C14.851 33.499 13.9865 33.5747 13.1212 33.5581C12.268 33.5681 11.4159 33.4924 10.5782 33.3324V14.8268C11.5774 13.9937 13.0074 13.2253 14.8682 12.5215C16.7309 11.8209 18.7084 11.4641 20.702 11.4691C23.6672 11.4691 26.0126 12.2905 27.738 13.9333C28.7503 13.177 29.8758 12.5805 31.0739 12.1654C32.3454 11.7036 33.6898 11.4678 35.0448 11.4691C36.7178 11.4286 38.378 11.7657 39.8988 12.4548Z" fill="#A53D96"/>
<path d="M51.2054 17.7836C52.1123 17.1254 53.1353 16.6391 54.2222 16.3496C55.1883 16.0711 56.1876 15.9203 57.1939 15.9013C58.8614 15.9013 60.1399 16.2595 61.0294 16.976C61.4744 17.3387 61.8274 17.799 62.0602 18.3201C62.2929 18.8413 62.3991 19.4088 62.3703 19.9776V20.1334C64.1659 20.8723 65.8587 21.8339 67.408 22.9951V20.2955C67.4338 18.9452 67.185 17.6035 66.6763 16.3496C66.2373 15.2787 65.5351 14.3324 64.6329 13.596C63.7065 12.8703 62.6408 12.3371 61.5 12.0284C60.2149 11.675 58.8858 11.5016 57.5517 11.5133C55.7809 11.4962 54.0237 11.8202 52.3786 12.4672C50.7735 13.1032 49.5917 13.7826 48.8332 14.5054C48.9489 15.2043 49.2208 15.869 49.6293 16.4513C50.0235 17.0273 50.5681 17.4876 51.2054 17.7836Z" fill="url(#paint1_linear_178_55)"/>
<path d="M86.8501 22.7093C85.6253 21.6346 83.5454 20.8736 80.6102 20.4263C78.8246 20.155 77.6063 19.819 76.9552 19.4184C76.6598 19.257 76.4141 19.02 76.2439 18.7324C76.0738 18.4447 75.9854 18.1171 75.9883 17.784C75.9839 17.4537 76.0718 17.1285 76.2424 16.8441C76.4129 16.5597 76.6595 16.3272 76.9552 16.172C77.5998 15.784 78.5667 15.5901 79.8818 15.5901C82.0929 15.5673 84.2706 16.1236 86.1926 17.2022C87.2498 16.367 87.8998 15.1576 88.1426 13.5742C87.1303 12.9061 86.0097 12.4136 84.8292 12.1179C83.2774 11.6993 81.6741 11.496 80.0655 11.5138C77.371 11.5138 75.1921 12.1264 73.529 13.3516C72.7447 13.8854 72.1062 14.6022 71.6704 15.4382C71.2346 16.2742 71.015 17.2034 71.0311 18.1433C71.0311 19.9324 71.6285 21.3569 72.8232 22.4168C74.0179 23.4767 75.9023 24.2006 78.4765 24.5885C80.3201 24.8598 81.6287 25.2181 82.4022 25.6632C83.1758 26.1084 83.5615 26.6913 83.5593 27.412C83.5667 27.7798 83.4787 28.1434 83.3039 28.4683C83.1291 28.7933 82.8731 29.0688 82.5602 29.2689C82.4802 29.3231 82.3974 29.373 82.312 29.4184C82.2272 29.4622 82.14 29.5015 82.0509 29.536C81.8651 29.6154 81.6733 29.6802 81.4772 29.73C80.4813 30.0098 78.6312 30.2705 76.1333 29.5201H76.0882C75.7497 29.4268 75.418 29.311 75.0954 29.1735L74.7151 29.0146C73.2767 28.337 71.9377 27.4706 70.7346 26.439C69.671 25.5424 68.7169 24.7952 67.8693 24.1656L67.4083 23.7936C65.7422 22.4904 63.8975 21.4263 61.9291 20.633C57.4167 18.916 53.6006 19.8413 51.4024 21.3421C50.2596 21.9939 49.3276 22.952 48.7144 24.1052L48.6467 24.2387C48.6273 24.2832 48.6048 24.3278 48.5822 24.3691L48.5403 24.4645C48.2897 25.001 48.1255 25.5728 48.0536 26.1592C48.0067 26.4634 47.9819 26.7705 47.9795 27.0781C47.9795 29.2276 48.781 30.9139 50.3839 32.137C51.9869 33.3601 54.3505 33.9727 57.4748 33.9748C59.2539 33.9689 61.0271 33.7738 62.7639 33.3929C64.3697 33.0683 65.9309 32.557 67.4148 31.8699V29.5487L66.5284 28.827C65.2111 27.6965 63.82 26.6524 62.3642 25.7014V29.4152C60.925 29.8618 59.4251 30.0892 57.9163 30.0893C56.4015 30.0893 55.2358 29.7978 54.4193 29.2149C54.0415 28.9526 53.7304 28.6076 53.5103 28.2069C53.1531 27.3159 53.167 26.3216 53.549 25.4406C54.3 23.6346 58.2161 22.4708 62.3223 24.9319L62.3642 24.9573L62.5415 25.0559C64.1208 26.0098 65.5454 27.2212 66.9249 28.3437L67.4019 28.7316C70.7185 31.412 74.2865 33.9748 80.478 33.9843C82.8739 33.8338 84.7873 33.2106 86.2184 32.1147C87.8665 30.8429 88.6905 29.1046 88.6905 26.9001C88.715 26.111 88.5628 25.3263 88.2447 24.602C87.9266 23.8776 87.4504 23.2313 86.8501 22.7093Z" fill="url(#paint2_linear_178_55)"/>
<path d="M0.773438 23.707V33.3318C1.62301 33.4927 2.4869 33.5684 3.35192 33.5576C4.20432 33.5737 5.05597 33.498 5.89172 33.3318V27.6307C4.00167 26.5748 2.27749 25.253 0.773438 23.707ZM10.5749 29.3986V33.3318C11.4126 33.4919 12.2647 33.5675 13.1179 33.5576C13.9831 33.5741 14.8476 33.4985 15.6964 33.3318V29.707C15.1485 29.7579 14.6167 29.7865 14.1074 29.7865C12.919 29.7858 11.7344 29.6557 10.5749 29.3986ZM24.9177 33.3318C25.7855 33.4944 26.6677 33.57 27.551 33.5576C28.4044 33.5735 29.2571 33.4978 30.094 33.3318V25.087C28.3696 25.8883 26.6324 26.6355 24.9177 27.2905V33.3318ZM44.1338 17.4336C42.6963 18.3175 41.0396 19.3064 39.2412 20.3303C39.2856 20.673 39.3082 21.0181 39.3088 21.3636V33.3318C40.158 33.4959 41.0222 33.5715 41.8873 33.5576C42.7429 33.574 43.5978 33.4983 44.4368 33.3318V19.8438C44.4422 19.0308 44.3404 18.2206 44.1338 17.4336Z" fill="url(#paint3_linear_178_55)"/>
<path d="M122.143 17.6186C122.385 17.1284 122.583 16.6176 122.732 16.0924C122.838 15.6273 122.913 15.1556 122.955 14.6806L121.817 13.749L119.535 13.0908C120.031 14.9283 120.248 16.8281 120.18 18.7283C120.165 19.6287 120.083 20.5267 119.935 21.4151C119.939 21.4388 119.951 21.4603 119.969 21.476C119.987 21.4917 120.011 21.5005 120.035 21.501C120.053 21.5006 120.071 21.4951 120.086 21.4851C120.949 20.32 121.631 19.0338 122.107 17.6695L122.143 17.6186Z" fill="#A53D96"/>
<path d="M122.897 12.4547C122.429 8.5469 117.788 5.52306 117.788 5.52306C113.227 2.20986 106.797 0.489666 104.741 0C104.713 0.00158145 104.688 0.0132396 104.669 0.0326669C104.649 0.0520942 104.638 0.0778782 104.638 0.104929C104.637 0.126618 104.644 0.147853 104.657 0.165343C109.917 3.0938 111.284 6.07949 111.632 7.61526V7.65978C111.644 7.70695 111.654 7.75471 111.661 7.80286C111.74 8.15919 111.782 8.52245 111.787 8.88712C111.787 9.01749 111.787 9.14785 111.787 9.27504C111.851 12.7122 108.886 15.7933 107.8 16.8076C107.785 16.8291 107.778 16.8554 107.782 16.8813C107.785 16.9071 107.799 16.9308 107.819 16.9475C107.833 16.9576 107.85 16.9642 107.867 16.9666C109.979 16.0799 112.155 15.3508 114.378 14.7854C116.75 14.1494 119.148 13.7393 120.482 14.1685C122.474 14.7186 122.358 16.5851 122.094 17.6948C122.367 17.1496 122.583 16.5786 122.739 15.9905C123.017 14.8323 123.071 13.6325 122.897 12.4547Z" fill="url(#paint4_linear_178_55)"/>
</g>
<defs>
<linearGradient id="paint0_linear_178_55" x1="109.066" y1="24.0316" x2="90.7299" y2="24.0316" gradientUnits="userSpaceOnUse">
<stop stop-color="#A22C91"/>
<stop offset="0.1" stop-color="#BF2E68"/>
<stop offset="0.2" stop-color="#D83043"/>
<stop offset="0.29" stop-color="#E8312C"/>
<stop offset="0.34" stop-color="#EE3124"/>
<stop offset="0.46" stop-color="#F04627"/>
<stop offset="0.72" stop-color="#F77D30"/>
<stop offset="1" stop-color="#FEBF3B"/>
</linearGradient>
<linearGradient id="paint1_linear_178_55" x1="48.8365" y1="17.2621" x2="67.4015" y2="17.2621" gradientUnits="userSpaceOnUse">
<stop offset="0.06" stop-color="#A22C91"/>
<stop offset="0.24" stop-color="#BF2E68"/>
<stop offset="0.42" stop-color="#D83043"/>
<stop offset="0.57" stop-color="#E8312C"/>
<stop offset="0.67" stop-color="#EE3124"/>
<stop offset="0.73" stop-color="#F04627"/>
<stop offset="0.86" stop-color="#F77D30"/>
<stop offset="1" stop-color="#FEBF3B"/>
</linearGradient>
<linearGradient id="paint2_linear_178_55" x1="47.9763" y1="22.757" x2="88.6873" y2="22.757" gradientUnits="userSpaceOnUse">
<stop offset="0.06" stop-color="#A22C91"/>
<stop offset="0.24" stop-color="#BF2E68"/>
<stop offset="0.42" stop-color="#D83043"/>
<stop offset="0.57" stop-color="#E8312C"/>
<stop offset="0.67" stop-color="#EE3124"/>
<stop offset="0.73" stop-color="#F04627"/>
<stop offset="0.86" stop-color="#F77D30"/>
<stop offset="1" stop-color="#FEBF3B"/>
</linearGradient>
<linearGradient id="paint3_linear_178_55" x1="44.4368" y1="25.4908" x2="0.773438" y2="25.4908" gradientUnits="userSpaceOnUse">
<stop stop-color="#BD2790"/>
<stop offset="0.25" stop-color="#CF2B68"/>
<stop offset="0.51" stop-color="#E02E43"/>
<stop offset="0.73" stop-color="#EA302C"/>
<stop offset="0.86" stop-color="#EE3124"/>
<stop offset="0.89" stop-color="#F04627"/>
<stop offset="0.94" stop-color="#F77D30"/>
<stop offset="1" stop-color="#FEBF3B"/>
</linearGradient>
<linearGradient id="paint4_linear_178_55" x1="118.581" y1="19.7011" x2="106.71" y2="-1.13478" gradientUnits="userSpaceOnUse">
<stop stop-color="#FFE438"/>
<stop offset="0.02" stop-color="#FDCE37"/>
<stop offset="0.05" stop-color="#FCBD36"/>
<stop offset="0.08" stop-color="#FBB235"/>
<stop offset="0.12" stop-color="#FAAB35"/>
<stop offset="0.24" stop-color="#FAA935"/>
<stop offset="0.28" stop-color="#F68130"/>
<stop offset="0.34" stop-color="#F35D2C"/>
<stop offset="0.39" stop-color="#F04128"/>
<stop offset="0.45" stop-color="#EE2C26"/>
<stop offset="0.5" stop-color="#ED2024"/>
<stop offset="0.55" stop-color="#ED1C24"/>
<stop offset="0.74" stop-color="#BF2666"/>
<stop offset="0.87" stop-color="#A22C91"/>
</linearGradient>
<clipPath id="clip0_178_55">
<rect width="123" height="34" fill="white"/>
</clipPath>
</defs>
</svg>
